<svg id="svg" version="1.1" xmlns="http://www.w3.org/2000/svg" xmlns:xlink="http://www.w3.org/1999/xlink" width="400" height="476.1904761904762" viewBox="0, 0, 400,476.1904761904762"><g id="svgg"><path id="path0" d="M198.600 6.999 C 198.380 7.073,197.562 7.240,196.782 7.370 C 196.003 7.499,194.417 8.216,193.258 8.963 C 192.099 9.709,190.545 10.434,189.805 10.573 C 188.420 10.832,184.236 14.211,184.590 14.784 C 184.779 15.090,183.923 15.978,182.838 16.601 C 182.461 16.818,182.370 16.772,182.562 16.462 C 182.719 16.208,182.789 16.000,182.718 16.000 C 182.123 16.000,178.205 17.684,177.298 18.330 C 176.669 18.778,175.241 19.492,174.124 19.916 C 173.008 20.340,171.488 21.149,170.747 21.713 C 170.006 22.277,168.653 22.995,167.740 23.309 C 166.826 23.622,164.756 24.971,163.140 26.306 C 161.523 27.641,159.258 29.090,158.106 29.526 C 156.955 29.962,155.461 30.782,154.788 31.349 C 154.115 31.915,152.880 32.563,152.043 32.788 C 151.207 33.013,149.809 33.715,148.937 34.347 C 148.064 34.979,146.529 35.859,145.525 36.303 C 144.522 36.747,142.323 38.205,140.640 39.543 C 138.957 40.880,136.909 42.158,136.090 42.383 C 135.270 42.607,133.790 43.335,132.800 44.000 C 131.810 44.665,130.370 45.382,129.600 45.594 C 128.218 45.973,122.602 50.336,122.993 50.727 C 123.104 50.838,123.598 50.585,124.091 50.164 C 124.872 49.498,124.914 49.492,124.426 50.122 C 123.776 50.960,122.136 51.950,122.575 51.240 C 123.014 50.529,122.360 50.735,119.600 52.176 C 118.170 52.922,115.830 54.106,114.400 54.807 C 112.970 55.508,111.215 56.522,110.499 57.062 C 109.783 57.601,108.613 58.240,107.899 58.482 C 106.412 58.986,104.966 59.926,102.400 62.055 C 101.410 62.877,99.406 64.083,97.947 64.737 C 96.488 65.390,95.172 66.121,95.023 66.362 C 94.631 66.997,94.973 66.907,96.594 65.950 C 97.386 65.483,98.102 65.169,98.185 65.252 C 98.268 65.335,97.434 65.906,96.332 66.521 C 95.230 67.136,94.445 67.451,94.588 67.220 C 95.408 65.892,89.723 68.839,86.600 71.360 C 85.060 72.603,83.170 73.794,82.400 74.005 C 81.630 74.217,80.190 74.941,79.200 75.613 C 78.210 76.286,76.770 77.107,76.000 77.438 C 74.477 78.093,71.513 79.912,65.577 83.836 C 63.474 85.225,60.864 86.744,59.777 87.210 C 58.690 87.676,57.530 88.301,57.200 88.600 C 56.870 88.898,55.430 89.721,54.000 90.429 C 52.570 91.137,50.140 92.564,48.600 93.601 C 47.060 94.637,45.013 95.886,44.050 96.376 C 43.088 96.866,41.576 97.792,40.690 98.433 C 39.805 99.075,38.857 99.600,38.584 99.600 C 38.312 99.600,36.224 100.834,33.944 102.341 C 31.665 103.849,28.990 105.495,28.000 105.999 C 27.010 106.503,25.660 107.326,25.000 107.827 C 24.340 108.328,22.455 109.382,20.811 110.169 C 19.167 110.956,18.111 111.600,18.463 111.600 C 19.416 111.600,23.811 109.238,32.284 104.172 L 33.400 103.505 32.400 104.357 C 31.850 104.825,30.320 105.810,29.000 106.545 C 27.680 107.280,25.160 108.726,23.400 109.758 C 21.640 110.789,19.171 111.924,17.914 112.278 C 16.657 112.633,15.722 113.073,15.835 113.257 C 15.949 113.441,15.779 113.490,15.457 113.367 C 14.593 113.035,6.077 120.998,5.155 123.000 C 4.749 123.880,4.414 124.330,4.410 124.000 C 4.399 123.059,5.965 120.724,7.553 119.317 C 8.349 118.611,8.820 118.027,8.600 118.020 C 7.890 117.997,5.115 120.907,4.543 122.274 C 3.720 124.244,3.711 345.735,4.534 347.704 C 5.367 349.698,9.391 353.125,12.634 354.603 C 14.208 355.320,15.612 356.096,15.755 356.327 C 15.898 356.559,17.047 357.132,18.308 357.602 C 19.568 358.071,21.410 359.127,22.400 359.947 C 25.089 362.175,26.618 363.179,28.082 363.678 C 28.807 363.925,30.186 364.662,31.147 365.315 C 32.108 365.969,33.730 366.809,34.751 367.182 C 35.772 367.555,38.090 368.960,39.901 370.302 C 41.712 371.645,43.600 372.870,44.097 373.025 C 44.594 373.179,45.900 373.899,47.000 374.625 C 49.800 376.472,53.541 378.076,52.998 377.197 C 52.861 376.975,53.825 377.380,55.140 378.097 C 56.456 378.814,57.467 379.466,57.387 379.546 C 57.307 379.626,56.400 379.221,55.370 378.646 C 53.300 377.489,53.031 377.403,53.413 378.021 C 53.556 378.253,55.142 379.141,56.937 379.995 C 58.731 380.849,60.560 381.877,61.000 382.280 C 62.176 383.357,65.572 385.434,67.349 386.164 C 69.155 386.905,69.329 386.932,69.011 386.417 C 68.746 385.989,75.459 389.443,76.400 390.219 C 76.730 390.491,78.370 391.360,80.044 392.149 C 81.718 392.938,83.338 393.900,83.644 394.287 C 84.174 394.958,84.154 394.958,83.200 394.288 C 82.650 393.902,80.940 392.956,79.400 392.185 C 76.097 390.533,71.782 388.193,70.465 387.341 C 69.951 387.008,69.442 386.824,69.334 386.932 C 69.065 387.201,72.054 389.200,72.725 389.200 C 73.022 389.200,74.209 389.827,75.364 390.594 C 76.519 391.360,78.184 392.242,79.064 392.552 C 79.944 392.863,82.197 394.213,84.070 395.553 C 85.943 396.893,88.096 398.248,88.853 398.564 C 89.610 398.881,91.186 399.783,92.355 400.570 C 93.524 401.356,94.712 402.000,94.995 402.000 C 95.279 402.000,96.423 402.628,97.539 403.395 C 98.655 404.163,100.520 405.153,101.684 405.595 C 104.165 406.538,104.129 406.532,103.764 405.942 C 103.385 405.329,105.935 406.842,106.531 407.584 C 106.789 407.906,106.405 407.751,105.677 407.241 C 104.949 406.730,104.262 406.405,104.150 406.517 C 103.852 406.814,108.835 410.288,110.641 411.043 C 111.489 411.397,112.925 412.198,113.834 412.823 C 115.129 413.715,119.262 415.599,119.924 415.600 C 119.992 415.600,119.919 415.392,119.762 415.138 C 119.570 414.828,119.660 414.783,120.038 415.002 C 120.922 415.514,124.557 418.097,125.000 418.528 C 125.666 419.176,124.363 418.391,122.281 416.889 C 121.226 416.127,120.269 415.598,120.154 415.713 C 119.881 415.986,124.502 419.252,126.800 420.409 C 127.790 420.908,129.140 421.721,129.800 422.217 C 130.460 422.713,132.170 423.686,133.600 424.380 C 138.589 426.798,142.617 429.012,145.000 430.644 C 146.320 431.548,148.210 432.697,149.200 433.198 C 150.190 433.700,151.720 434.600,152.600 435.200 C 153.480 435.800,154.650 436.421,155.200 436.580 C 155.750 436.739,157.104 437.477,158.208 438.220 C 159.312 438.963,160.980 439.840,161.914 440.170 C 162.848 440.499,164.195 441.208,164.906 441.744 C 168.216 444.237,177.340 449.566,183.199 452.428 C 184.628 453.126,186.518 454.190,187.399 454.792 C 192.488 458.272,194.635 459.000,199.800 459.000 L 204.600 459.000 208.361 457.065 C 210.429 456.001,212.769 454.703,213.561 454.179 C 214.352 453.656,215.630 453.014,216.400 452.752 C 217.897 452.245,220.153 450.819,219.884 450.551 C 219.795 450.461,218.875 450.862,217.840 451.440 C 216.805 452.018,215.893 452.426,215.813 452.346 C 215.733 452.266,216.744 451.614,218.060 450.897 C 219.375 450.180,220.339 449.775,220.202 449.997 C 219.342 451.389,225.400 448.152,233.467 442.911 C 235.235 441.762,237.526 440.460,238.559 440.018 C 239.592 439.575,241.030 438.761,241.754 438.208 C 242.478 437.655,243.685 436.998,244.436 436.748 C 245.186 436.498,247.240 435.259,249.000 433.996 C 250.760 432.732,253.370 431.122,254.800 430.418 C 259.287 428.209,262.963 426.238,264.611 425.158 C 265.485 424.586,266.594 423.992,267.075 423.839 C 267.557 423.687,269.627 422.375,271.675 420.925 C 273.724 419.475,275.940 418.106,276.600 417.883 C 277.260 417.660,278.318 417.116,278.952 416.674 C 279.586 416.233,281.386 415.205,282.952 414.391 C 289.785 410.839,291.168 410.056,294.064 408.097 C 295.749 406.957,298.065 405.668,299.209 405.233 C 300.353 404.799,301.604 404.159,301.987 403.812 C 302.371 403.465,303.835 402.577,305.242 401.840 C 312.297 398.142,313.601 397.390,316.096 395.577 C 317.580 394.499,320.055 392.984,321.596 392.209 C 328.803 388.588,329.927 387.945,331.788 386.389 C 333.801 384.706,335.778 383.552,337.600 382.999 C 338.794 382.636,340.924 381.191,340.658 380.924 C 340.554 380.821,339.959 381.039,339.335 381.410 C 338.280 382.037,338.257 382.037,339.000 381.413 C 340.249 380.365,341.364 379.811,340.983 380.428 C 340.751 380.803,340.869 380.855,341.434 380.627 C 341.855 380.457,342.740 380.123,343.400 379.885 C 344.060 379.647,345.663 378.766,346.962 377.926 C 348.261 377.087,349.555 376.400,349.837 376.400 C 350.494 376.400,356.912 371.579,356.631 371.297 C 356.407 371.074,356.093 371.289,353.140 373.693 C 351.302 375.189,348.084 376.835,348.587 376.021 C 348.730 375.789,349.090 375.600,349.387 375.600 C 349.685 375.600,351.497 374.430,353.415 373.000 C 356.913 370.392,357.459 370.057,357.000 370.800 C 356.677 371.322,356.678 371.322,359.017 370.467 C 360.119 370.064,361.809 369.164,362.771 368.467 C 363.733 367.770,364.818 367.200,365.182 367.200 C 365.546 367.200,366.734 366.632,367.822 365.938 C 368.910 365.244,370.761 364.234,371.936 363.693 C 373.110 363.151,375.187 361.854,376.550 360.809 C 379.113 358.845,381.230 357.600,382.008 357.600 C 382.254 357.600,383.209 357.082,384.129 356.449 C 385.049 355.816,386.972 354.755,388.401 354.093 C 391.789 352.521,395.361 349.096,396.076 346.732 C 396.835 344.222,396.853 125.834,396.094 123.336 C 395.531 121.484,394.876 120.732,390.052 116.400 C 386.137 112.885,386.335 113.013,383.335 112.050 C 382.051 111.637,380.655 111.157,380.234 110.982 C 379.697 110.759,379.554 110.802,379.755 111.127 C 379.945 111.435,379.822 111.507,379.387 111.340 C 378.927 111.163,378.872 111.003,379.202 110.799 C 379.675 110.506,376.733 108.611,372.062 106.200 C 370.783 105.540,368.491 104.117,366.969 103.038 C 365.446 101.959,363.300 100.624,362.200 100.071 C 361.100 99.518,359.325 98.466,358.255 97.733 C 357.185 97.000,356.078 96.400,355.794 96.400 C 355.510 96.400,353.390 95.140,351.083 93.600 C 348.776 92.060,346.726 90.800,346.526 90.800 C 346.326 90.800,344.929 89.990,343.422 89.000 C 341.915 88.010,340.466 87.200,340.203 87.200 C 339.939 87.200,338.661 86.518,337.362 85.684 C 336.063 84.850,334.159 83.851,333.132 83.463 C 332.104 83.075,331.047 82.497,330.783 82.179 C 330.518 81.861,330.099 81.601,329.851 81.602 C 329.603 81.603,329.940 82.066,330.600 82.631 C 331.260 83.196,331.530 83.527,331.200 83.368 C 330.183 82.877,329.209 81.909,329.408 81.587 C 329.716 81.089,326.898 78.843,324.461 77.643 C 323.217 77.031,321.300 75.970,320.200 75.285 C 317.938 73.876,315.674 73.148,316.200 73.999 C 316.602 74.650,314.111 73.212,313.469 72.423 C 312.901 71.725,313.765 72.148,314.902 73.125 C 315.289 73.457,315.697 73.637,315.809 73.525 C 316.147 73.187,310.372 68.995,307.800 67.712 C 301.506 64.571,299.175 63.219,296.440 61.124 C 294.812 59.877,293.028 58.743,292.476 58.605 C 291.924 58.466,290.482 57.643,289.271 56.776 C 288.060 55.909,286.757 55.200,286.375 55.200 C 285.993 55.200,284.717 54.549,283.540 53.753 C 282.363 52.956,280.720 52.063,279.888 51.766 C 279.057 51.470,277.077 50.205,275.488 48.956 C 273.900 47.707,271.687 46.277,270.572 45.779 C 269.457 45.281,267.667 44.317,266.594 43.637 C 265.521 42.957,264.343 42.400,263.976 42.400 C 263.608 42.400,262.249 41.680,260.954 40.801 C 259.659 39.921,258.320 39.201,257.978 39.201 C 257.093 39.200,254.014 37.140,252.600 35.603 C 251.410 34.309,247.952 32.406,246.800 32.410 C 246.267 32.412,246.267 32.459,246.800 32.837 C 247.333 33.214,247.333 33.243,246.800 33.097 C 246.470 33.007,246.200 32.731,246.200 32.483 C 246.200 31.778,243.668 30.087,241.569 29.390 C 240.520 29.041,239.446 28.496,239.182 28.178 C 238.918 27.860,238.533 27.600,238.327 27.600 C 237.633 27.600,238.441 28.402,239.926 29.186 C 240.737 29.614,241.202 29.973,240.959 29.982 C 240.295 30.009,237.840 28.258,237.899 27.800 C 238.030 26.802,233.396 23.200,231.982 23.200 C 231.618 23.200,230.528 22.626,229.560 21.924 C 228.592 21.223,226.923 20.315,225.851 19.907 C 224.779 19.500,223.339 18.740,222.651 18.220 C 221.963 17.700,220.663 17.078,219.763 16.838 C 218.726 16.563,216.993 15.437,215.038 13.769 C 213.179 12.183,211.205 10.885,210.076 10.506 C 209.044 10.160,207.480 9.368,206.600 8.746 C 204.672 7.381,200.292 6.425,198.600 6.999 M196.753 8.152 C 195.957 8.437,194.652 9.073,193.853 9.567 C 193.054 10.061,192.400 10.364,192.400 10.241 C 192.400 9.811,196.606 7.608,197.400 7.621 C 197.887 7.630,197.634 7.837,196.753 8.152 M204.564 8.159 C 205.300 8.467,206.052 8.962,206.236 9.259 C 206.458 9.620,206.225 9.575,205.537 9.125 C 204.969 8.754,203.896 8.275,203.152 8.061 C 202.408 7.847,202.121 7.656,202.513 7.636 C 202.905 7.616,203.828 7.852,204.564 8.159 M212.422 12.240 C 213.203 12.768,214.463 13.861,215.222 14.669 C 216.469 15.998,216.401 15.970,214.512 14.369 C 213.364 13.396,211.654 12.186,210.712 11.681 C 209.748 11.163,209.437 10.875,210.000 11.021 C 210.550 11.163,211.640 11.712,212.422 12.240 M188.100 12.374 C 187.209 13.019,186.361 13.739,186.216 13.974 C 186.071 14.208,185.772 14.400,185.552 14.400 C 185.332 14.400,185.983 13.680,187.000 12.800 C 188.017 11.920,189.045 11.200,189.284 11.200 C 189.524 11.200,188.991 11.728,188.100 12.374 M183.200 15.400 C 182.922 15.735,182.879 16.000,183.102 16.000 C 183.322 16.000,183.726 15.730,184.000 15.400 C 184.278 15.065,184.321 14.800,184.098 14.800 C 183.878 14.800,183.474 15.070,183.200 15.400 M178.248 18.800 C 176.587 19.680,175.087 20.396,174.914 20.392 C 174.385 20.378,180.163 17.217,180.734 17.208 C 181.028 17.204,179.909 17.920,178.248 18.800 M223.069 19.024 C 224.325 19.781,225.184 20.399,224.976 20.399 C 224.769 20.398,223.970 20.006,223.200 19.529 C 222.430 19.051,221.170 18.325,220.400 17.916 C 219.630 17.506,219.401 17.279,219.892 17.410 C 220.383 17.542,221.812 18.268,223.069 19.024 M172.802 21.438 C 171.812 22.003,170.777 22.653,170.502 22.882 C 170.226 23.111,170.000 23.182,170.000 23.040 C 170.000 22.696,173.642 20.399,174.178 20.405 C 174.410 20.407,173.791 20.872,172.802 21.438 M227.800 21.386 C 228.680 21.921,230.660 22.986,232.200 23.752 C 233.740 24.517,235.540 25.729,236.200 26.444 L 237.400 27.744 235.587 26.295 C 234.590 25.498,232.970 24.496,231.987 24.068 C 229.937 23.175,225.259 20.397,225.824 20.407 C 226.031 20.410,226.920 20.851,227.800 21.386 M167.400 24.362 C 166.520 24.772,164.835 25.942,163.657 26.963 C 162.478 27.983,161.128 28.999,160.657 29.221 C 160.014 29.523,160.049 29.446,160.800 28.912 C 161.350 28.520,162.520 27.547,163.400 26.749 C 165.307 25.020,167.568 23.600,168.400 23.610 C 168.730 23.614,168.280 23.953,167.400 24.362 M157.000 31.000 C 156.120 31.543,154.140 32.610,152.600 33.371 C 151.060 34.132,149.170 35.145,148.400 35.621 L 147.000 36.487 148.000 35.615 C 148.550 35.135,150.260 34.150,151.801 33.427 C 153.341 32.703,155.301 31.636,156.156 31.055 C 157.012 30.475,157.912 30.003,158.156 30.007 C 158.400 30.010,157.880 30.457,157.000 31.000 M243.865 31.017 C 244.819 31.576,245.600 32.124,245.600 32.234 C 245.600 32.394,242.293 30.639,241.633 30.129 C 240.931 29.586,242.465 30.196,243.865 31.017 M249.442 33.917 C 250.125 34.293,251.745 35.580,253.042 36.777 C 254.339 37.974,255.040 38.704,254.600 38.399 C 254.160 38.094,253.080 37.179,252.200 36.365 C 251.320 35.551,249.880 34.514,249.000 34.061 C 248.120 33.607,247.580 33.235,247.800 33.234 C 248.020 33.234,248.759 33.541,249.442 33.917 M145.201 37.438 C 144.211 38.004,142.681 39.052,141.801 39.768 C 140.920 40.483,139.660 41.382,139.000 41.765 C 137.818 42.450,137.815 42.450,138.782 41.730 C 139.322 41.329,140.672 40.263,141.782 39.363 C 143.848 37.686,145.888 36.441,146.600 36.421 C 146.820 36.415,146.190 36.872,145.201 37.438 M259.200 40.272 C 261.943 41.839,263.356 42.787,262.956 42.793 C 262.712 42.797,261.812 42.324,260.956 41.742 C 260.100 41.161,258.680 40.351,257.800 39.942 C 256.920 39.533,256.650 39.312,257.200 39.450 C 257.750 39.588,258.650 39.958,259.200 40.272 M136.400 43.069 C 135.630 43.401,134.370 44.031,133.600 44.471 C 132.599 45.041,132.428 45.076,133.000 44.591 C 133.914 43.816,136.801 42.406,137.400 42.441 C 137.620 42.455,137.170 42.737,136.400 43.069 M265.589 43.594 C 266.445 44.031,267.252 44.561,267.382 44.771 C 267.569 45.074,264.326 43.483,263.633 42.932 C 263.126 42.529,264.241 42.907,265.589 43.594 M129.175 46.788 C 127.952 47.420,126.715 48.221,126.426 48.568 C 126.138 48.916,125.719 49.200,125.496 49.200 C 124.898 49.200,128.003 46.787,129.400 46.165 C 131.590 45.191,131.435 45.620,129.175 46.788 M204.911 46.854 C 208.243 48.532,219.121 54.653,223.928 57.555 C 226.057 58.840,237.700 65.564,249.800 72.497 C 261.900 79.430,274.770 86.812,278.400 88.903 C 287.684 94.250,325.926 116.077,334.800 121.094 C 353.930 131.909,354.762 132.592,352.989 136.021 C 352.071 137.796,344.422 141.418,334.000 145.013 C 331.690 145.810,328.090 147.055,326.000 147.779 C 323.910 148.503,319.950 150.092,317.200 151.311 C 314.450 152.529,311.120 153.832,309.800 154.206 C 308.480 154.580,305.059 155.929,302.198 157.202 C 299.337 158.475,295.647 159.922,293.998 160.416 C 292.349 160.911,290.177 161.726,289.171 162.228 C 288.166 162.730,286.186 163.441,284.771 163.807 C 283.357 164.173,279.680 165.560,276.600 166.890 C 273.520 168.220,269.872 169.632,268.494 170.028 C 267.115 170.423,264.975 171.211,263.737 171.777 C 262.500 172.344,260.432 173.081,259.142 173.415 C 257.851 173.749,254.453 175.088,251.590 176.390 C 248.726 177.692,244.812 179.236,242.892 179.821 C 240.971 180.407,238.743 181.221,237.941 181.630 C 237.138 182.040,235.204 182.729,233.642 183.162 C 232.079 183.595,228.416 185.025,225.501 186.340 C 222.585 187.656,218.872 189.122,217.250 189.598 C 213.996 190.553,208.551 193.094,205.302 195.174 C 201.627 197.527,198.057 197.391,193.960 194.743 C 190.935 192.788,186.011 190.569,180.800 188.814 C 172.437 185.997,169.219 184.799,165.200 183.006 C 162.890 181.975,159.020 180.445,156.600 179.607 C 148.245 176.712,143.385 174.865,139.200 172.995 C 136.890 171.962,133.650 170.716,132.000 170.225 C 130.350 169.733,126.660 168.318,123.800 167.079 C 120.940 165.841,116.710 164.180,114.400 163.388 C 104.107 159.860,102.339 159.200,98.000 157.273 C 95.470 156.149,91.600 154.610,89.400 153.852 C 80.218 150.691,76.336 149.223,71.600 147.125 C 68.850 145.906,65.708 144.693,64.617 144.428 C 63.527 144.163,59.927 142.778,56.617 141.350 C 41.198 134.695,41.248 134.583,65.800 120.707 C 70.640 117.971,81.350 111.858,89.600 107.122 C 97.850 102.386,106.940 97.205,109.800 95.609 C 112.660 94.014,120.670 89.424,127.600 85.410 C 144.307 75.734,154.700 69.772,163.200 64.988 C 167.050 62.821,172.810 59.490,176.000 57.586 C 182.303 53.822,191.186 48.802,195.000 46.847 C 198.389 45.110,201.454 45.112,204.911 46.854 M271.533 46.816 C 272.811 47.595,277.985 51.445,278.400 51.926 C 278.834 52.429,276.108 50.594,274.599 49.368 C 273.719 48.652,272.189 47.604,271.199 47.038 C 270.210 46.472,269.580 46.008,269.800 46.006 C 270.020 46.004,270.800 46.369,271.533 46.816 M121.167 52.130 C 120.555 52.606,116.400 54.769,116.400 54.612 C 116.400 54.350,120.501 52.009,120.967 52.004 C 121.168 52.002,121.258 52.058,121.167 52.130 M280.564 52.559 C 281.300 52.867,282.027 53.321,282.180 53.568 C 282.398 53.920,279.566 52.704,278.833 52.130 C 278.440 51.822,279.326 52.042,280.564 52.559 M286.451 55.764 C 287.193 56.074,288.250 56.680,288.800 57.110 C 289.350 57.541,290.912 58.453,292.271 59.138 C 293.630 59.822,294.839 60.540,294.958 60.732 C 295.077 60.925,293.875 60.371,292.287 59.502 C 284.723 55.363,283.279 54.438,286.451 55.764 M113.000 56.585 C 110.211 58.279,109.200 58.826,109.200 58.641 C 109.200 58.356,113.731 55.599,114.187 55.607 C 114.414 55.610,113.880 56.050,113.000 56.585 M107.400 59.676 C 106.520 60.139,105.170 60.961,104.400 61.503 L 103.000 62.489 104.200 61.423 C 105.486 60.281,107.944 58.835,108.600 58.835 C 108.820 58.835,108.280 59.214,107.400 59.676 M101.400 63.812 C 100.740 64.353,100.025 64.797,99.811 64.798 C 99.430 64.800,102.008 62.844,102.400 62.834 C 102.510 62.831,102.060 63.271,101.400 63.812 M303.865 66.217 C 304.819 66.776,305.600 67.324,305.600 67.434 C 305.600 67.594,302.293 65.839,301.633 65.329 C 300.931 64.786,302.465 65.396,303.865 66.217 M92.367 68.528 C 91.731 69.015,89.200 70.336,89.200 70.181 C 89.200 69.913,91.718 68.403,92.167 68.401 C 92.368 68.401,92.458 68.457,92.367 68.528 M310.074 69.561 C 311.081 70.199,312.047 70.964,312.221 71.261 C 312.401 71.567,312.206 71.512,311.769 71.131 C 311.346 70.764,310.190 70.001,309.200 69.436 C 308.210 68.872,307.590 68.407,307.822 68.405 C 308.054 68.402,309.067 68.922,310.074 69.561 M86.800 72.173 C 86.800 72.268,86.215 72.733,85.500 73.206 L 84.200 74.066 85.400 73.035 C 86.631 71.978,86.800 71.873,86.800 72.173 M81.568 75.309 C 80.596 75.809,79.305 76.550,78.700 76.955 C 78.095 77.360,77.600 77.595,77.600 77.477 C 77.600 77.110,82.141 74.400,82.755 74.400 C 83.074 74.400,82.540 74.809,81.568 75.309 M319.622 75.527 C 320.600 76.146,322.684 77.328,324.254 78.152 C 325.824 78.977,327.534 80.135,328.054 80.725 L 329.000 81.800 327.981 80.906 C 327.071 80.108,323.564 78.063,318.432 75.339 C 317.460 74.822,316.930 74.400,317.254 74.400 C 317.578 74.400,318.644 74.907,319.622 75.527 M75.400 78.732 C 74.300 79.347,72.410 80.481,71.200 81.252 C 67.536 83.586,66.000 84.476,66.000 84.263 C 66.000 84.080,67.337 83.229,74.376 78.929 C 75.574 78.198,76.744 77.603,76.976 77.607 C 77.209 77.611,76.500 78.118,75.400 78.732 M64.600 85.442 C 63.575 86.232,62.400 86.879,62.400 86.653 C 62.400 86.450,64.903 84.811,65.200 84.819 C 65.310 84.823,65.040 85.103,64.600 85.442 M337.000 86.193 L 337.800 86.844 337.000 86.451 C 336.560 86.235,335.840 85.766,335.400 85.407 L 334.600 84.756 335.400 85.149 C 335.840 85.365,336.560 85.834,337.000 86.193 M60.367 87.728 C 59.731 88.215,57.200 89.536,57.200 89.381 C 57.200 89.113,59.718 87.603,60.167 87.601 C 60.368 87.601,60.458 87.657,60.367 87.728 M342.513 89.031 C 343.771 89.818,344.800 90.548,344.800 90.654 C 344.800 90.760,344.575 90.707,344.300 90.536 C 344.025 90.365,342.821 89.635,341.624 88.913 C 340.426 88.191,339.622 87.600,339.836 87.600 C 340.050 87.600,341.254 88.244,342.513 89.031 M54.200 91.264 C 53.760 91.506,52.500 92.240,51.400 92.895 C 50.300 93.549,49.619 93.856,49.886 93.576 C 50.539 92.894,54.097 90.812,54.600 90.819 C 54.820 90.822,54.640 91.022,54.200 91.264 M350.200 93.704 C 350.420 93.933,349.520 93.526,348.200 92.800 C 346.880 92.074,345.620 91.298,345.400 91.075 C 345.180 90.852,346.080 91.259,347.400 91.979 C 348.720 92.699,349.980 93.475,350.200 93.704 M48.880 94.500 C 48.371 95.108,46.000 96.531,46.000 96.228 C 46.000 96.033,48.789 94.080,49.149 94.024 C 49.231 94.011,49.110 94.225,48.880 94.500 M353.200 95.854 C 353.200 95.964,352.660 95.670,352.000 95.200 C 351.340 94.730,350.800 94.256,350.800 94.146 C 350.800 94.036,351.340 94.330,352.000 94.800 C 352.660 95.270,353.200 95.744,353.200 95.854 M358.100 98.297 C 358.925 98.799,359.600 99.294,359.600 99.397 C 359.600 99.622,354.374 96.834,353.800 96.303 C 353.235 95.781,356.304 97.204,358.100 98.297 M43.131 97.957 C 40.854 99.402,39.273 100.226,39.800 99.694 C 40.415 99.074,44.152 96.816,44.578 96.808 C 44.786 96.803,44.135 97.321,43.131 97.957 M364.600 102.185 C 365.040 102.542,364.320 102.258,363.000 101.552 C 361.680 100.847,360.420 100.100,360.200 99.892 C 359.581 99.307,363.696 101.452,364.600 102.185 M38.980 100.334 C 38.186 101.032,34.628 102.873,35.200 102.290 C 35.530 101.953,36.517 101.300,37.394 100.839 C 39.082 99.951,39.605 99.784,38.980 100.334 M373.722 107.591 C 375.313 108.600,376.568 109.833,375.100 108.945 C 372.562 107.410,371.112 106.400,371.443 106.400 C 371.663 106.400,372.689 106.936,373.722 107.591 M378.400 110.621 C 378.400 110.731,377.860 110.541,377.200 110.200 C 376.540 109.859,376.000 109.489,376.000 109.379 C 376.000 109.269,376.540 109.459,377.200 109.800 C 377.860 110.141,378.400 110.511,378.400 110.621 M14.200 112.748 C 12.524 113.789,8.689 117.622,9.006 117.939 C 9.151 118.082,10.108 117.266,11.134 116.124 C 12.160 114.982,13.700 113.587,14.556 113.024 C 16.332 111.855,16.023 111.616,14.200 112.748 M387.083 114.547 C 388.009 115.236,388.875 116.070,389.008 116.400 C 389.140 116.730,388.649 116.419,387.915 115.709 C 387.181 114.999,385.865 114.048,384.991 113.595 C 384.068 113.117,383.820 112.881,384.400 113.033 C 384.950 113.176,386.157 113.858,387.083 114.547 M391.425 118.499 L 392.600 119.797 391.400 118.805 C 390.740 118.259,390.029 117.674,389.820 117.506 C 389.584 117.316,389.594 117.200,389.845 117.200 C 390.068 117.200,390.779 117.784,391.425 118.499 M394.478 121.367 C 394.788 121.964,394.612 121.882,393.856 121.079 C 393.275 120.463,392.800 119.856,392.800 119.730 C 392.800 119.314,394.036 120.520,394.478 121.367 M396.283 128.495 C 396.187 128.993,396.105 128.680,396.101 127.800 C 396.096 126.920,396.175 126.513,396.275 126.895 C 396.375 127.278,396.379 127.998,396.283 128.495 M3.397 235.000 C 3.397 293.960,3.443 318.140,3.500 288.732 C 3.557 259.325,3.557 211.085,3.500 181.532 C 3.443 151.980,3.397 176.040,3.397 235.000 M366.790 159.528 C 368.473 161.211,368.442 159.475,368.316 246.200 L 368.200 325.800 367.270 327.688 C 366.111 330.041,364.500 331.230,356.000 336.009 C 352.370 338.049,348.713 340.152,347.874 340.681 C 346.250 341.705,331.228 350.221,315.400 359.091 C 310.120 362.050,303.910 365.603,301.600 366.988 C 297.047 369.715,284.549 376.816,279.400 379.599 C 277.640 380.550,267.650 386.221,257.200 392.201 C 227.614 409.132,228.107 408.882,226.132 407.927 C 224.272 407.029,223.660 405.407,223.214 400.182 C 222.989 397.552,222.352 390.180,221.799 383.800 C 221.246 377.420,220.616 368.150,220.398 363.200 C 219.963 353.287,219.641 348.609,218.215 331.400 C 217.686 325.020,216.968 315.120,216.621 309.400 C 216.274 303.680,215.808 296.390,215.586 293.200 C 215.365 290.010,214.828 282.270,214.394 276.000 C 213.960 269.730,213.332 261.630,213.000 258.000 C 211.010 236.286,210.820 236.842,222.200 231.132 C 225.280 229.587,229.060 227.551,230.600 226.609 C 232.140 225.667,242.040 220.485,252.600 215.094 C 263.160 209.702,277.290 202.460,284.000 199.000 C 290.710 195.539,301.060 190.278,307.000 187.308 C 312.940 184.338,321.310 180.064,325.600 177.811 C 336.955 171.847,361.169 159.590,362.800 158.980 C 364.892 158.198,365.550 158.288,366.790 159.528 M49.763 165.250 C 56.823 168.798,68.090 174.540,74.800 178.012 C 86.839 184.240,103.903 192.962,145.400 214.097 C 157.060 220.035,168.040 225.753,169.800 226.803 C 171.560 227.853,175.250 229.835,178.000 231.207 C 187.648 236.019,189.185 238.761,187.415 248.000 C 187.207 249.087,186.188 264.081,185.798 271.800 C 185.665 274.440,185.213 280.740,184.794 285.800 C 184.106 294.116,183.693 300.096,182.419 320.200 C 182.195 323.720,181.568 332.360,181.025 339.400 C 180.482 346.440,179.843 355.710,179.606 360.000 C 179.370 364.290,178.743 373.380,178.213 380.200 C 177.683 387.020,177.135 394.580,176.994 397.000 C 176.429 406.707,175.369 408.894,171.597 408.139 C 170.332 407.886,158.322 401.229,138.200 389.626 C 131.600 385.820,123.410 381.174,120.000 379.301 C 113.981 375.994,106.784 371.900,94.000 364.507 C 90.590 362.536,85.100 359.433,81.800 357.612 C 78.500 355.791,74.540 353.541,73.000 352.612 C 71.460 351.684,67.320 349.339,63.800 347.403 C 60.280 345.466,55.060 342.496,52.200 340.802 C 49.340 339.108,44.679 336.424,41.841 334.837 C 35.470 331.273,34.181 330.302,33.074 328.232 L 32.200 326.600 32.082 244.800 C 31.999 187.479,32.092 162.556,32.393 161.518 C 33.592 157.372,34.449 157.556,49.763 165.250 M396.283 343.295 C 396.187 343.793,396.105 343.480,396.101 342.600 C 396.096 341.720,396.175 341.313,396.275 341.695 C 396.375 342.078,396.379 342.798,396.283 343.295 M8.015 350.538 C 9.191 351.594,10.793 352.798,11.576 353.212 C 12.359 353.626,12.856 353.973,12.680 353.982 C 10.691 354.092,4.375 347.936,4.409 345.920 C 4.414 345.634,4.746 346.124,5.148 347.009 C 5.550 347.893,6.840 349.481,8.015 350.538 M394.416 348.777 C 393.937 349.450,393.386 350.000,393.192 350.000 C 392.997 350.000,393.280 349.524,393.819 348.942 C 394.359 348.359,394.800 347.699,394.800 347.475 C 394.800 347.250,394.910 347.176,395.044 347.310 C 395.178 347.444,394.895 348.104,394.416 348.777 M391.762 351.246 C 390.946 352.153,387.263 354.395,386.600 354.389 C 386.380 354.387,387.190 353.841,388.400 353.176 C 389.610 352.511,390.955 351.615,391.389 351.184 C 392.445 350.135,392.721 350.181,391.762 351.246 M15.317 355.021 C 16.144 355.583,17.941 356.548,19.310 357.166 C 20.680 357.784,22.700 359.040,23.800 359.957 C 24.900 360.874,27.060 362.253,28.600 363.023 C 33.072 365.257,35.737 366.800,35.124 366.800 C 34.812 366.800,33.666 366.233,32.578 365.539 C 31.490 364.846,29.687 363.872,28.572 363.376 C 27.457 362.880,25.350 361.559,23.891 360.440 C 22.431 359.322,20.284 357.982,19.119 357.464 C 16.812 356.438,12.807 354.000,13.429 354.000 C 13.641 354.000,14.491 354.460,15.317 355.021 M385.200 354.992 C 385.200 355.265,381.081 357.593,380.600 357.591 C 380.380 357.591,381.280 356.974,382.600 356.221 C 385.289 354.687,385.200 354.729,385.200 354.992 M377.200 359.621 C 375.970 360.674,373.863 362.079,374.400 361.488 C 374.848 360.995,378.214 358.408,378.400 358.415 C 378.510 358.418,377.970 358.961,377.200 359.621 M374.000 361.795 C 374.000 361.902,372.785 362.613,371.300 363.374 C 369.815 364.135,368.060 365.126,367.400 365.576 C 366.740 366.026,366.020 366.395,365.800 366.396 C 365.291 366.397,367.412 365.065,371.000 363.131 C 374.038 361.493,374.000 361.510,374.000 361.795 M364.000 366.969 C 364.000 367.323,359.396 369.999,358.813 369.984 C 358.476 369.976,358.777 369.718,359.481 369.412 C 360.186 369.105,361.443 368.392,362.274 367.827 C 363.838 366.765,364.000 366.684,364.000 366.969 M39.927 369.349 C 40.297 369.761,39.745 369.524,38.700 368.821 C 37.655 368.118,36.800 367.456,36.800 367.349 C 36.800 367.015,39.220 368.563,39.927 369.349 M44.971 372.749 C 44.794 372.944,41.307 370.897,41.017 370.427 C 40.893 370.227,41.763 370.634,42.949 371.332 C 44.136 372.029,45.046 372.667,44.971 372.749 M51.411 376.323 C 51.220 376.514,48.097 374.881,47.832 374.452 C 47.710 374.254,48.495 374.564,49.577 375.141 C 50.658 375.718,51.484 376.250,51.411 376.323 M348.000 376.540 C 348.000 376.824,344.039 379.132,343.134 379.376 C 342.585 379.525,342.777 379.321,343.600 378.884 C 344.370 378.475,345.630 377.749,346.400 377.271 C 347.848 376.373,348.000 376.304,348.000 376.540 M61.000 381.393 L 61.800 382.044 61.000 381.651 C 60.560 381.435,59.840 380.966,59.400 380.607 L 58.600 379.956 59.400 380.349 C 59.840 380.565,60.560 381.034,61.000 381.393 M332.400 384.987 C 332.400 385.090,331.455 385.864,330.300 386.707 C 328.242 388.209,325.200 389.798,325.200 389.371 C 325.200 389.252,325.978 388.811,326.929 388.390 C 327.881 387.969,329.456 386.999,330.429 386.233 C 332.315 384.751,332.400 384.697,332.400 384.987 M324.800 389.783 C 324.800 390.100,321.173 392.107,320.969 391.902 C 320.862 391.795,321.314 391.484,321.974 391.211 C 322.634 390.938,323.381 390.463,323.636 390.157 C 324.076 389.626,324.800 389.394,324.800 389.783 M318.000 393.373 C 318.000 393.468,317.415 393.933,316.700 394.406 L 315.400 395.266 316.600 394.235 C 317.831 393.178,318.000 393.073,318.000 393.373 M88.472 397.402 C 89.422 397.946,90.003 398.393,89.762 398.395 C 89.239 398.401,84.400 395.320,84.400 394.981 C 84.400 394.852,84.927 395.121,85.572 395.580 C 86.216 396.039,87.521 396.859,88.472 397.402 M314.773 395.833 C 314.484 396.181,313.157 397.012,311.824 397.680 C 310.491 398.348,308.362 399.530,307.094 400.308 C 305.826 401.085,304.718 401.649,304.632 401.561 C 304.546 401.472,305.908 400.590,307.659 399.600 C 309.409 398.610,311.777 397.233,312.921 396.541 C 315.398 395.040,315.445 395.022,314.773 395.833 M94.700 400.817 C 96.610 401.739,96.980 402.199,95.300 401.565 C 94.063 401.097,90.400 398.822,90.400 398.521 C 90.400 398.414,90.985 398.702,91.700 399.162 C 92.415 399.621,93.765 400.366,94.700 400.817 M304.000 401.743 C 304.000 402.051,299.343 404.716,298.400 404.947 C 297.657 405.129,297.725 405.042,298.666 404.609 C 299.362 404.288,300.793 403.480,301.844 402.813 C 303.764 401.596,304.000 401.478,304.000 401.743 M102.209 405.123 C 102.005 405.329,98.661 403.632,97.600 402.783 C 97.050 402.343,97.889 402.662,99.465 403.492 C 101.041 404.321,102.276 405.055,102.209 405.123 M297.200 405.340 C 297.200 405.417,296.300 406.040,295.200 406.724 C 294.100 407.407,293.200 407.880,293.200 407.775 C 293.200 407.596,296.809 405.200,297.078 405.200 C 297.145 405.200,297.200 405.263,297.200 405.340 M111.455 410.400 C 111.729 410.400,112.070 410.589,112.213 410.821 C 112.564 411.388,109.842 410.227,108.377 409.183 C 106.536 407.872,106.997 407.889,109.078 409.209 C 110.111 409.864,111.181 410.400,111.455 410.400 M291.600 408.990 C 291.600 409.094,291.060 409.459,290.400 409.800 C 288.896 410.578,288.805 410.240,290.300 409.429 C 291.557 408.747,291.600 408.732,291.600 408.990 M116.240 413.493 C 116.050 413.683,113.600 412.099,113.600 411.786 C 113.600 411.699,114.238 412.003,115.017 412.463 C 115.796 412.923,116.347 413.386,116.240 413.493 M286.400 411.792 C 286.400 412.065,282.281 414.393,281.800 414.391 C 281.580 414.391,282.480 413.774,283.800 413.021 C 286.489 411.487,286.400 411.529,286.400 411.792 M281.200 414.540 C 281.200 414.824,277.239 417.132,276.334 417.376 C 275.785 417.525,275.977 417.321,276.800 416.884 C 277.570 416.475,278.830 415.749,279.600 415.271 C 281.048 414.373,281.200 414.304,281.200 414.540 M275.200 417.747 C 275.200 417.828,274.480 418.370,273.600 418.953 C 272.720 419.535,272.000 419.925,272.000 419.820 C 272.000 419.644,274.848 417.600,275.093 417.600 C 275.152 417.600,275.200 417.666,275.200 417.747 M128.800 420.616 C 128.800 420.726,128.080 420.449,127.200 420.000 C 126.320 419.551,125.600 419.094,125.600 418.984 C 125.600 418.874,126.320 419.151,127.200 419.600 C 128.080 420.049,128.800 420.506,128.800 420.616 M271.600 420.209 C 271.600 420.517,266.746 423.600,266.262 423.600 C 266.034 423.600,266.916 422.958,268.224 422.173 C 269.531 421.389,270.771 420.579,270.980 420.373 C 271.408 419.953,271.600 419.902,271.600 420.209 M134.100 423.517 C 135.145 423.978,136.000 424.442,136.000 424.548 C 136.000 424.951,131.253 422.670,130.153 421.738 L 129.000 420.761 130.600 421.720 C 131.480 422.247,133.055 423.056,134.100 423.517 M265.600 423.769 C 265.600 424.033,261.072 426.800,260.640 426.800 C 260.428 426.800,261.413 426.088,262.827 425.219 C 265.593 423.519,265.600 423.515,265.600 423.769 M139.394 426.739 C 139.221 426.912,136.400 425.231,136.400 424.955 C 136.400 424.857,137.108 425.184,137.973 425.682 C 138.838 426.180,139.478 426.655,139.394 426.739 M142.522 427.991 C 143.555 428.646,144.400 429.298,144.400 429.440 C 144.400 429.582,144.174 429.511,143.898 429.282 C 143.623 429.053,142.588 428.403,141.598 427.838 C 140.609 427.272,139.990 426.807,140.222 426.805 C 140.454 426.802,141.489 427.336,142.522 427.991 M257.396 428.406 C 257.125 428.846,254.231 430.406,253.716 430.391 C 253.542 430.386,254.300 429.865,255.400 429.234 C 257.782 427.867,257.712 427.896,257.396 428.406 M150.200 432.910 C 150.827 433.503,147.495 431.741,146.600 431.006 C 146.160 430.645,146.700 430.841,147.800 431.441 C 148.900 432.041,149.980 432.702,150.200 432.910 M248.595 433.608 C 248.283 434.113,244.350 436.394,243.800 436.389 C 243.580 436.387,244.390 435.840,245.599 435.173 C 246.809 434.507,247.970 433.790,248.179 433.581 C 248.681 433.079,248.912 433.095,248.595 433.608 M156.205 436.328 C 156.029 436.504,153.178 435.005,152.200 434.222 C 151.760 433.870,152.510 434.171,153.866 434.891 C 155.222 435.611,156.275 436.258,156.205 436.328 M243.200 436.566 C 243.200 436.797,239.254 439.202,238.894 439.190 C 238.628 439.181,242.802 436.400,243.081 436.400 C 243.147 436.400,243.200 436.475,243.200 436.566 M160.589 438.661 C 161.023 438.958,161.244 439.200,161.080 439.200 C 160.696 439.200,157.600 437.155,157.600 436.901 C 157.600 436.722,158.681 437.359,160.589 438.661 M236.800 440.219 C 235.810 440.760,234.558 441.516,234.017 441.901 C 233.476 442.285,233.174 442.371,233.346 442.092 C 233.706 441.505,237.604 439.200,238.200 439.222 C 238.420 439.231,237.790 439.679,236.800 440.219 M166.531 441.968 C 166.789 442.280,166.235 442.032,165.300 441.415 C 164.365 440.798,163.600 440.217,163.600 440.124 C 163.600 439.836,166.034 441.367,166.531 441.968 M230.200 444.243 C 229.256 444.972,226.866 446.243,227.296 445.788 C 227.671 445.391,230.532 443.625,230.800 443.625 C 230.910 443.625,230.640 443.903,230.200 444.243 M177.500 448.447 C 179.400 449.331,179.798 449.806,178.100 449.165 C 176.858 448.695,173.200 446.422,173.200 446.119 C 173.200 446.010,173.785 446.312,174.500 446.789 C 175.215 447.267,176.565 448.013,177.500 448.447 M224.400 447.790 C 224.400 448.032,222.144 449.205,221.720 449.183 C 221.544 449.174,222.030 448.822,222.800 448.400 C 224.377 447.537,224.400 447.528,224.400 447.790 M184.232 452.301 C 184.049 452.484,181.600 451.270,181.600 450.996 C 181.600 450.895,182.228 451.112,182.995 451.478 C 183.762 451.844,184.319 452.214,184.232 452.301 M214.180 453.147 C 213.557 453.715,210.000 455.693,210.000 455.471 C 210.000 455.271,214.022 452.826,214.380 452.809 C 214.479 452.804,214.389 452.956,214.180 453.147 M188.600 454.593 L 189.400 455.244 188.600 454.851 C 188.160 454.635,187.440 454.166,187.000 453.807 L 186.200 453.156 187.000 453.549 C 187.440 453.765,188.160 454.234,188.600 454.593 M194.603 457.930 C 194.408 458.125,190.406 456.119,189.800 455.522 C 189.580 455.306,190.609 455.720,192.087 456.444 C 193.565 457.167,194.697 457.836,194.603 457.930 M206.600 457.229 C 205.280 457.872,203.930 458.394,203.600 458.389 C 203.270 458.385,204.052 457.949,205.337 457.420 C 206.622 456.892,207.777 456.356,207.904 456.230 C 208.030 456.103,208.328 456.014,208.567 456.031 C 208.805 456.048,207.920 456.587,206.600 457.229 M201.511 458.691 C 200.691 458.777,199.251 458.778,198.311 458.693 C 197.370 458.609,198.040 458.539,199.800 458.537 C 201.560 458.536,202.330 458.605,201.511 458.691 " stroke="none" fill="#8d85fc" fill-rule="evenodd"></path><path id="path1" d="M194.500 8.812 C 193.345 9.474,192.400 10.117,192.400 10.241 C 192.400 10.364,193.054 10.061,193.853 9.567 C 194.652 9.073,195.957 8.437,196.753 8.152 C 197.634 7.837,197.887 7.630,197.400 7.621 C 196.960 7.614,195.655 8.149,194.500 8.812 M203.152 8.061 C 203.896 8.275,204.969 8.754,205.537 9.125 C 206.225 9.575,206.458 9.620,206.236 9.259 C 205.832 8.604,203.498 7.586,202.513 7.636 C 202.121 7.656,202.408 7.847,203.152 8.061 M210.712 11.681 C 211.654 12.186,213.364 13.396,214.512 14.369 C 216.401 15.970,216.469 15.998,215.222 14.669 C 213.574 12.913,211.376 11.378,210.000 11.021 C 209.437 10.875,209.748 11.163,210.712 11.681 M187.000 12.800 C 185.983 13.680,185.332 14.400,185.552 14.400 C 185.772 14.400,186.071 14.208,186.216 13.974 C 186.361 13.739,187.209 13.019,188.100 12.374 C 188.991 11.728,189.524 11.200,189.284 11.200 C 189.045 11.200,188.017 11.920,187.000 12.800 M183.400 15.850 C 182.681 16.462,182.534 16.705,183.033 16.457 C 183.766 16.093,185.141 14.776,184.749 14.814 C 184.667 14.822,184.060 15.288,183.400 15.850 M177.400 18.800 C 173.754 20.862,174.356 20.862,178.248 18.800 C 179.909 17.920,181.028 17.204,180.734 17.208 C 180.440 17.213,178.940 17.929,177.400 18.800 M220.400 17.916 C 221.170 18.325,222.430 19.051,223.200 19.529 C 223.970 20.006,224.769 20.398,224.976 20.399 C 225.541 20.401,220.922 17.686,219.892 17.410 C 219.401 17.279,219.630 17.506,220.400 17.916 M171.878 21.591 C 170.845 22.246,170.000 22.898,170.000 23.040 C 170.000 23.182,170.226 23.111,170.502 22.882 C 170.777 22.653,171.812 22.003,172.802 21.438 C 173.791 20.872,174.410 20.407,174.178 20.405 C 173.946 20.402,172.911 20.936,171.878 21.591 M227.824 21.845 C 229.131 22.640,231.004 23.640,231.987 24.068 C 232.970 24.496,234.590 25.498,235.587 26.295 L 237.400 27.744 236.200 26.444 C 235.540 25.729,233.740 24.517,232.200 23.752 C 230.660 22.986,228.680 21.921,227.800 21.386 C 226.920 20.851,226.031 20.410,225.824 20.407 C 225.616 20.403,226.516 21.050,227.824 21.845 M166.400 24.451 C 165.630 24.917,164.280 25.951,163.400 26.749 C 162.520 27.547,161.350 28.520,160.800 28.912 C 160.049 29.446,160.014 29.523,160.657 29.221 C 161.128 28.999,162.478 27.983,163.657 26.963 C 164.835 25.942,166.520 24.772,167.400 24.362 C 168.280 23.953,168.730 23.614,168.400 23.610 C 168.070 23.606,167.170 23.984,166.400 24.451 M237.982 28.178 C 238.680 29.019,240.795 30.138,241.104 29.829 C 241.230 29.703,241.148 29.600,240.922 29.600 C 240.697 29.600,239.816 29.128,238.967 28.552 C 238.117 27.975,237.674 27.807,237.982 28.178 M156.156 31.055 C 155.301 31.636,153.341 32.703,151.801 33.427 C 150.260 34.150,148.550 35.135,148.000 35.615 L 147.000 36.487 148.400 35.621 C 149.170 35.145,151.060 34.132,152.600 33.371 C 155.986 31.698,158.764 30.016,158.156 30.007 C 157.912 30.003,157.012 30.475,156.156 31.055 M241.633 30.129 C 242.293 30.639,245.600 32.394,245.600 32.234 C 245.600 31.976,242.236 30.000,241.798 30.000 C 241.616 30.000,241.542 30.058,241.633 30.129 M249.000 34.061 C 249.880 34.514,251.320 35.551,252.200 36.365 C 253.080 37.179,254.160 38.094,254.600 38.399 C 255.040 38.704,254.339 37.974,253.042 36.777 C 250.765 34.675,248.631 33.233,247.800 33.234 C 247.580 33.235,248.120 33.607,249.000 34.061 M145.000 37.079 C 144.340 37.434,142.892 38.462,141.782 39.363 C 140.672 40.263,139.322 41.329,138.782 41.730 C 137.815 42.450,137.818 42.450,139.000 41.765 C 139.660 41.382,140.920 40.483,141.801 39.768 C 142.681 39.052,144.211 38.004,145.201 37.438 C 147.146 36.326,146.973 36.015,145.000 37.079 M257.800 39.942 C 258.680 40.351,260.100 41.161,260.956 41.742 C 261.812 42.324,262.712 42.797,262.956 42.793 C 263.356 42.787,261.943 41.839,259.200 40.272 C 258.650 39.958,257.750 39.588,257.200 39.450 C 256.650 39.312,256.920 39.533,257.800 39.942 M135.400 43.165 C 134.520 43.576,133.440 44.218,133.000 44.591 C 132.428 45.076,132.599 45.041,133.600 44.471 C 134.370 44.031,135.630 43.401,136.400 43.069 C 137.170 42.737,137.620 42.455,137.400 42.441 C 137.180 42.428,136.280 42.754,135.400 43.165 M263.633 42.932 C 264.326 43.483,267.569 45.074,267.382 44.771 C 267.135 44.371,264.240 42.800,263.749 42.800 C 263.594 42.800,263.542 42.860,263.633 42.932 M129.400 46.165 C 128.003 46.787,124.898 49.200,125.496 49.200 C 125.719 49.200,126.138 48.916,126.426 48.568 C 126.715 48.221,127.952 47.420,129.175 46.788 C 131.435 45.620,131.590 45.191,129.400 46.165 M195.000 46.847 C 191.186 48.802,182.303 53.822,176.000 57.586 C 172.810 59.490,167.050 62.821,163.200 64.988 C 154.700 69.772,144.307 75.734,127.600 85.410 C 120.670 89.424,112.660 94.014,109.800 95.609 C 106.940 97.205,97.850 102.386,89.600 107.122 C 81.350 111.858,70.640 117.971,65.800 120.707 C 41.248 134.583,41.198 134.695,56.617 141.350 C 59.927 142.778,63.527 144.163,64.617 144.428 C 65.708 144.693,68.850 145.906,71.600 147.125 C 76.336 149.223,80.218 150.691,89.400 153.852 C 91.600 154.610,95.470 156.149,98.000 157.273 C 102.339 159.200,104.107 159.860,114.400 163.388 C 116.710 164.180,120.940 165.841,123.800 167.079 C 126.660 168.318,130.350 169.733,132.000 170.225 C 133.650 170.716,136.890 171.962,139.200 172.995 C 143.385 174.865,148.245 176.712,156.600 179.607 C 159.020 180.445,162.890 181.975,165.200 183.006 C 169.219 184.799,172.437 185.997,180.800 188.814 C 186.011 190.569,190.935 192.788,193.960 194.743 C 198.057 197.391,201.627 197.527,205.302 195.174 C 208.551 193.094,213.996 190.553,217.250 189.598 C 218.872 189.122,222.585 187.656,225.501 186.340 C 228.416 185.025,232.079 183.595,233.642 183.162 C 235.204 182.729,237.138 182.040,237.941 181.630 C 238.743 181.221,240.971 180.407,242.892 179.821 C 244.812 179.236,248.726 177.692,251.590 176.390 C 254.453 175.088,257.851 173.749,259.142 173.415 C 260.432 173.081,262.500 172.344,263.737 171.777 C 264.975 171.211,267.115 170.423,268.494 170.028 C 269.872 169.632,273.520 168.220,276.600 166.890 C 279.680 165.560,283.357 164.173,284.771 163.807 C 286.186 163.441,288.166 162.730,289.171 162.228 C 290.177 161.726,292.349 160.911,293.998 160.416 C 295.647 159.922,299.337 158.475,302.198 157.202 C 305.059 155.929,308.480 154.580,309.800 154.206 C 311.120 153.832,314.450 152.529,317.200 151.311 C 319.950 150.092,323.910 148.503,326.000 147.779 C 328.090 147.055,331.690 145.810,334.000 145.013 C 344.422 141.418,352.071 137.796,352.989 136.021 C 354.762 132.592,353.930 131.909,334.800 121.094 C 325.926 116.077,287.684 94.250,278.400 88.903 C 274.770 86.812,261.900 79.430,249.800 72.497 C 237.700 65.564,226.057 58.840,223.928 57.555 C 219.121 54.653,208.243 48.532,204.911 46.854 C 201.454 45.112,198.389 45.110,195.000 46.847 M271.199 47.038 C 272.189 47.604,273.719 48.652,274.599 49.368 C 276.108 50.594,278.834 52.429,278.400 51.926 C 277.354 50.714,270.506 46.000,269.800 46.006 C 269.580 46.008,270.210 46.472,271.199 47.038 M123.400 50.650 C 122.681 51.262,122.534 51.505,123.033 51.257 C 123.766 50.893,125.141 49.576,124.749 49.614 C 124.667 49.622,124.060 50.088,123.400 50.650 M118.500 53.212 C 117.345 53.874,116.400 54.504,116.400 54.612 C 116.400 54.769,120.555 52.606,121.167 52.130 C 121.925 51.539,120.186 52.245,118.500 53.212 M278.833 52.130 C 279.566 52.704,282.398 53.920,282.180 53.568 C 282.027 53.321,281.300 52.867,280.564 52.559 C 279.326 52.042,278.440 51.822,278.833 52.130 M287.000 56.572 C 292.590 59.717,295.161 61.061,294.958 60.732 C 294.839 60.540,293.630 59.822,292.271 59.138 C 290.912 58.453,289.350 57.541,288.800 57.110 C 287.854 56.369,285.395 55.187,284.851 55.211 C 284.713 55.217,285.680 55.830,287.000 56.572 M111.487 57.031 C 109.170 58.480,108.278 59.350,110.300 58.189 C 113.157 56.547,114.564 55.613,114.187 55.607 C 113.961 55.603,112.746 56.244,111.487 57.031 M106.800 59.596 C 106.030 60.015,104.860 60.837,104.200 61.423 L 103.000 62.489 104.400 61.503 C 105.170 60.961,106.520 60.139,107.400 59.676 C 108.280 59.214,108.820 58.835,108.600 58.835 C 108.380 58.835,107.570 59.178,106.800 59.596 M100.811 63.820 C 100.047 64.359,99.597 64.799,99.811 64.798 C 100.025 64.797,100.740 64.353,101.400 63.812 C 102.941 62.549,102.605 62.553,100.811 63.820 M96.100 66.226 C 93.771 67.622,93.942 67.896,96.300 66.546 C 98.572 65.245,98.635 65.199,98.167 65.204 C 97.965 65.206,97.035 65.666,96.100 66.226 M301.633 65.329 C 302.293 65.839,305.600 67.594,305.600 67.434 C 305.600 67.176,302.236 65.200,301.798 65.200 C 301.616 65.200,301.542 65.258,301.633 65.329 M90.500 69.196 C 88.694 70.297,88.863 70.566,90.700 69.514 C 92.548 68.456,92.623 68.400,92.167 68.401 C 91.965 68.402,91.215 68.760,90.500 69.196 M309.200 69.436 C 310.190 70.001,311.346 70.764,311.769 71.131 C 312.206 71.512,312.401 71.567,312.221 71.261 C 311.844 70.618,308.424 68.398,307.822 68.405 C 307.590 68.407,308.210 68.872,309.200 69.436 M85.400 73.035 L 84.200 74.066 85.500 73.206 C 86.215 72.733,86.800 72.268,86.800 72.173 C 86.800 71.873,86.631 71.978,85.400 73.035 M313.469 72.435 C 313.727 72.746,314.537 73.330,315.269 73.733 L 316.600 74.467 315.600 73.622 C 314.180 72.422,312.839 71.675,313.469 72.435 M79.887 75.831 C 78.629 76.618,77.600 77.358,77.600 77.477 C 77.600 77.595,78.095 77.360,78.700 76.955 C 79.305 76.550,80.596 75.809,81.568 75.309 C 82.540 74.809,83.074 74.400,82.755 74.400 C 82.436 74.400,81.146 75.044,79.887 75.831 M318.432 75.339 C 323.564 78.063,327.071 80.108,327.981 80.906 L 329.000 81.800 328.054 80.725 C 327.534 80.135,325.824 78.977,324.254 78.152 C 322.684 77.328,320.600 76.146,319.622 75.527 C 318.644 74.907,317.578 74.400,317.254 74.400 C 316.930 74.400,317.460 74.822,318.432 75.339 M74.376 78.929 C 67.337 83.229,66.000 84.080,66.000 84.263 C 66.000 84.476,67.536 83.586,71.200 81.252 C 72.410 80.481,74.300 79.347,75.400 78.732 C 76.500 78.118,77.209 77.611,76.976 77.607 C 76.744 77.603,75.574 78.198,74.376 78.929 M329.567 82.137 C 330.140 82.850,331.600 83.787,331.600 83.441 C 331.600 83.339,331.015 82.844,330.300 82.343 C 329.378 81.696,329.165 81.636,329.567 82.137 M63.700 85.646 C 62.337 86.519,61.895 87.106,63.100 86.443 C 64.018 85.939,65.456 84.827,65.200 84.819 C 65.090 84.816,64.415 85.188,63.700 85.646 M335.400 85.407 C 335.840 85.766,336.560 86.235,337.000 86.451 L 337.800 86.844 337.000 86.193 C 336.560 85.834,335.840 85.365,335.400 85.149 L 334.600 84.756 335.400 85.407 M58.500 88.396 C 56.694 89.497,56.863 89.766,58.700 88.714 C 60.548 87.656,60.623 87.600,60.167 87.601 C 59.965 87.602,59.215 87.960,58.500 88.396 M341.624 88.913 C 342.821 89.635,344.025 90.365,344.300 90.536 C 344.575 90.707,344.800 90.760,344.800 90.654 C 344.800 90.373,340.294 87.600,339.836 87.600 C 339.622 87.600,340.426 88.191,341.624 88.913 M52.286 91.940 C 51.234 92.560,50.154 93.296,49.886 93.576 C 49.619 93.856,50.300 93.549,51.400 92.895 C 52.500 92.240,53.760 91.506,54.200 91.264 C 54.640 91.022,54.820 90.822,54.600 90.819 C 54.380 90.816,53.339 91.321,52.286 91.940 M345.400 91.075 C 345.620 91.298,346.880 92.074,348.200 92.800 C 349.520 93.526,350.420 93.933,350.200 93.704 C 349.980 93.475,348.720 92.699,347.400 91.979 C 346.080 91.259,345.180 90.852,345.400 91.075 M47.500 95.029 C 46.675 95.570,46.000 96.109,46.000 96.228 C 46.000 96.531,48.371 95.108,48.880 94.500 C 49.458 93.809,49.231 93.896,47.500 95.029 M350.800 94.146 C 350.800 94.256,351.340 94.730,352.000 95.200 C 352.660 95.670,353.200 95.964,353.200 95.854 C 353.200 95.744,352.660 95.270,352.000 94.800 C 351.340 94.330,350.800 94.036,350.800 94.146 M353.800 96.303 C 354.374 96.834,359.600 99.622,359.600 99.397 C 359.600 99.294,358.925 98.799,358.100 98.297 C 356.304 97.204,353.235 95.781,353.800 96.303 M42.200 98.053 C 39.999 99.415,38.850 100.381,40.353 99.606 C 42.054 98.729,44.967 96.800,44.578 96.808 C 44.370 96.812,43.300 97.372,42.200 98.053 M360.200 99.892 C 360.420 100.100,361.680 100.847,363.000 101.552 C 364.320 102.258,365.040 102.542,364.600 102.185 C 363.696 101.452,359.581 99.307,360.200 99.892 M37.394 100.839 C 36.517 101.300,35.530 101.953,35.200 102.290 C 34.870 102.626,35.500 102.399,36.600 101.785 C 39.723 100.041,40.366 99.275,37.394 100.839 M31.200 104.741 C 25.459 108.349,20.730 110.905,18.800 111.441 C 14.978 112.504,14.451 112.831,10.722 116.455 C 8.715 118.405,6.930 120.000,6.754 120.000 C 6.326 120.000,4.398 123.319,4.409 124.035 C 4.414 124.346,4.749 123.880,5.155 123.000 C 6.077 120.998,14.593 113.035,15.457 113.367 C 15.779 113.490,15.949 113.441,15.835 113.257 C 15.722 113.073,16.657 112.633,17.914 112.278 C 19.171 111.924,21.640 110.789,23.400 109.758 C 25.160 108.726,27.680 107.280,29.000 106.545 C 31.257 105.288,33.643 103.623,33.200 103.614 C 33.090 103.611,32.190 104.119,31.200 104.741 M372.822 107.521 C 375.513 109.218,375.600 109.265,375.600 109.015 C 375.600 108.699,371.945 106.400,371.443 106.400 C 371.223 106.400,371.844 106.905,372.822 107.521 M376.000 109.379 C 376.000 109.489,376.540 109.859,377.200 110.200 C 377.860 110.541,378.400 110.731,378.400 110.621 C 378.400 110.511,377.860 110.141,377.200 109.800 C 376.540 109.459,376.000 109.269,376.000 109.379 M384.991 113.595 C 385.865 114.048,387.181 114.999,387.915 115.709 C 388.649 116.419,389.140 116.730,389.008 116.400 C 388.679 115.582,385.630 113.354,384.400 113.033 C 383.820 112.881,384.068 113.117,384.991 113.595 M389.820 117.506 C 390.029 117.674,390.740 118.259,391.400 118.805 L 392.600 119.797 391.425 118.499 C 390.779 117.784,390.068 117.200,389.845 117.200 C 389.594 117.200,389.584 117.316,389.820 117.506 M392.800 119.730 C 392.800 119.856,393.275 120.463,393.856 121.079 C 394.612 121.882,394.788 121.964,394.478 121.367 C 394.036 120.520,392.800 119.314,392.800 119.730 M396.101 127.800 C 396.105 128.680,396.187 128.993,396.283 128.495 C 396.379 127.998,396.375 127.278,396.275 126.895 C 396.175 126.513,396.096 126.920,396.101 127.800 M3.797 235.000 C 3.797 294.180,3.843 318.330,3.900 288.668 C 3.957 259.005,3.957 210.585,3.900 181.068 C 3.843 151.550,3.797 175.820,3.797 235.000 M362.800 158.980 C 361.169 159.590,336.955 171.847,325.600 177.811 C 321.310 180.064,312.940 184.338,307.000 187.308 C 301.060 190.278,290.710 195.539,284.000 199.000 C 277.290 202.460,263.160 209.702,252.600 215.094 C 242.040 220.485,232.140 225.667,230.600 226.609 C 229.060 227.551,225.280 229.587,222.200 231.132 C 210.820 236.842,211.010 236.286,213.000 258.000 C 213.332 261.630,213.960 269.730,214.394 276.000 C 214.828 282.270,215.365 290.010,215.586 293.200 C 215.808 296.390,216.274 303.680,216.621 309.400 C 216.968 315.120,217.686 325.020,218.215 331.400 C 219.641 348.609,219.963 353.287,220.398 363.200 C 220.616 368.150,221.246 377.420,221.799 383.800 C 222.352 390.180,222.989 397.552,223.214 400.182 C 223.660 405.407,224.272 407.029,226.132 407.927 C 228.107 408.882,227.614 409.132,257.200 392.201 C 267.650 386.221,277.640 380.550,279.400 379.599 C 284.549 376.816,297.047 369.715,301.600 366.988 C 303.910 365.603,310.120 362.050,315.400 359.091 C 331.228 350.221,346.250 341.705,347.874 340.681 C 348.713 340.152,352.370 338.049,356.000 336.009 C 364.500 331.230,366.111 330.041,367.270 327.688 L 368.200 325.800 368.316 246.200 C 368.380 202.420,368.316 165.263,368.175 163.628 C 367.787 159.141,366.152 157.726,362.800 158.980 M33.439 159.418 C 31.970 160.887,31.962 161.424,32.082 244.800 L 32.200 326.600 33.074 328.232 C 34.181 330.302,35.470 331.273,41.841 334.837 C 44.679 336.424,49.340 339.108,52.200 340.802 C 55.060 342.496,60.280 345.466,63.800 347.403 C 67.320 349.339,71.460 351.684,73.000 352.612 C 74.540 353.541,78.500 355.791,81.800 357.612 C 85.100 359.433,90.590 362.536,94.000 364.507 C 106.784 371.900,113.981 375.994,120.000 379.301 C 123.410 381.174,131.600 385.820,138.200 389.626 C 158.322 401.229,170.332 407.886,171.597 408.139 C 175.369 408.894,176.429 406.707,176.994 397.000 C 177.135 394.580,177.683 387.020,178.213 380.200 C 178.743 373.380,179.370 364.290,179.606 360.000 C 179.843 355.710,180.482 346.440,181.025 339.400 C 181.568 332.360,182.195 323.720,182.419 320.200 C 183.693 300.096,184.106 294.116,184.794 285.800 C 185.213 280.740,185.665 274.440,185.798 271.800 C 186.188 264.081,187.207 249.087,187.415 248.000 C 189.185 238.761,187.648 236.019,178.000 231.207 C 175.250 229.835,171.560 227.853,169.800 226.803 C 168.040 225.753,157.060 220.035,145.400 214.097 C 103.903 192.962,86.839 184.240,74.800 178.012 C 39.177 159.583,35.105 157.752,33.439 159.418 M396.101 342.600 C 396.105 343.480,396.187 343.793,396.283 343.295 C 396.379 342.798,396.375 342.078,396.275 341.695 C 396.175 341.313,396.096 341.720,396.101 342.600 M4.409 345.920 C 4.375 347.936,10.691 354.092,12.680 353.982 C 12.856 353.973,12.359 353.626,11.576 353.212 C 9.317 352.017,5.946 348.764,5.148 347.009 C 4.746 346.124,4.414 345.634,4.409 345.920 M394.800 347.475 C 394.800 347.699,394.359 348.359,393.819 348.942 C 393.280 349.524,392.997 350.000,393.192 350.000 C 393.691 350.000,395.339 347.606,395.044 347.310 C 394.910 347.176,394.800 347.250,394.800 347.475 M391.389 351.184 C 390.955 351.615,389.610 352.511,388.400 353.176 C 387.190 353.841,386.380 354.387,386.600 354.389 C 387.263 354.395,390.946 352.153,391.762 351.246 C 392.721 350.181,392.445 350.135,391.389 351.184 M15.022 355.261 C 16.110 355.954,17.953 356.946,19.119 357.464 C 20.284 357.982,22.431 359.322,23.891 360.440 C 25.350 361.559,27.457 362.880,28.572 363.376 C 29.687 363.872,31.490 364.846,32.578 365.539 C 33.666 366.233,34.812 366.800,35.124 366.800 C 35.737 366.800,33.072 365.257,28.600 363.023 C 27.060 362.253,24.900 360.874,23.800 359.957 C 22.700 359.040,20.680 357.784,19.310 357.166 C 17.941 356.548,16.144 355.583,15.317 355.021 C 14.491 354.460,13.641 354.000,13.429 354.000 C 13.217 354.000,13.934 354.567,15.022 355.261 M382.600 356.221 C 381.280 356.974,380.380 357.591,380.600 357.591 C 381.081 357.593,385.200 355.265,385.200 354.992 C 385.200 354.729,385.289 354.687,382.600 356.221 M376.400 359.838 C 374.227 361.564,373.949 361.848,375.000 361.264 C 375.923 360.751,378.699 358.425,378.400 358.415 C 378.290 358.411,377.390 359.051,376.400 359.838 M371.000 363.131 C 367.412 365.065,365.291 366.397,365.800 366.396 C 366.020 366.395,366.740 366.026,367.400 365.576 C 368.060 365.126,369.815 364.135,371.300 363.374 C 372.785 362.613,374.000 361.902,374.000 361.795 C 374.000 361.510,374.038 361.493,371.000 363.131 M362.274 367.827 C 361.443 368.392,360.186 369.105,359.481 369.412 C 358.777 369.718,358.476 369.976,358.813 369.984 C 359.396 369.999,364.000 367.323,364.000 366.969 C 364.000 366.684,363.838 366.765,362.274 367.827 M36.800 367.349 C 36.800 367.456,37.655 368.118,38.700 368.821 C 39.745 369.524,40.297 369.761,39.927 369.349 C 39.220 368.563,36.800 367.015,36.800 367.349 M41.017 370.427 C 41.307 370.897,44.794 372.944,44.971 372.749 C 45.046 372.667,44.136 372.029,42.949 371.332 C 41.763 370.634,40.893 370.227,41.017 370.427 M353.415 373.000 C 351.497 374.430,349.685 375.600,349.387 375.600 C 349.090 375.600,348.730 375.789,348.587 376.021 C 348.055 376.883,351.283 375.177,353.322 373.519 C 354.484 372.573,355.878 371.494,356.418 371.121 C 356.958 370.748,357.288 370.433,357.151 370.421 C 357.014 370.409,355.333 371.570,353.415 373.000 M47.832 374.452 C 48.097 374.881,51.220 376.514,51.411 376.323 C 51.484 376.250,50.658 375.718,49.577 375.141 C 48.495 374.564,47.710 374.254,47.832 374.452 M346.400 377.271 C 345.630 377.749,344.370 378.475,343.600 378.884 C 342.777 379.321,342.585 379.525,343.134 379.376 C 344.426 379.028,348.651 376.390,347.900 376.401 C 347.845 376.402,347.170 376.794,346.400 377.271 M53.400 377.422 C 54.378 378.205,57.229 379.704,57.405 379.528 C 57.475 379.458,56.422 378.811,55.066 378.091 C 53.710 377.371,52.960 377.070,53.400 377.422 M59.400 380.607 C 59.840 380.966,60.560 381.435,61.000 381.651 L 61.800 382.044 61.000 381.393 C 60.560 381.034,59.840 380.565,59.400 380.349 L 58.600 379.956 59.400 380.607 M339.700 380.846 C 338.337 381.719,337.895 382.306,339.100 381.643 C 340.018 381.139,341.456 380.027,341.200 380.019 C 341.090 380.016,340.415 380.388,339.700 380.846 M330.429 386.233 C 329.456 386.999,327.881 387.969,326.929 388.390 C 325.978 388.811,325.200 389.252,325.200 389.371 C 325.200 389.798,328.242 388.209,330.300 386.707 C 331.455 385.864,332.400 385.090,332.400 384.987 C 332.400 384.697,332.315 384.751,330.429 386.233 M69.546 386.709 C 70.732 387.576,75.719 390.348,79.400 392.187 C 80.940 392.957,82.650 393.902,83.200 394.288 C 84.154 394.958,84.174 394.958,83.644 394.287 C 83.338 393.900,81.718 392.938,80.044 392.149 C 78.370 391.360,76.730 390.491,76.400 390.219 C 76.070 389.947,74.180 388.890,72.200 387.871 C 70.220 386.851,69.026 386.328,69.546 386.709 M323.636 390.157 C 323.381 390.463,322.634 390.938,321.974 391.211 C 321.314 391.484,320.862 391.795,320.969 391.902 C 321.173 392.107,324.800 390.100,324.800 389.783 C 324.800 389.394,324.076 389.626,323.636 390.157 M316.600 394.235 L 315.400 395.266 316.700 394.406 C 317.415 393.933,318.000 393.468,318.000 393.373 C 318.000 393.073,317.831 393.178,316.600 394.235 M84.400 394.981 C 84.400 395.320,89.239 398.401,89.762 398.395 C 90.003 398.393,89.422 397.946,88.472 397.402 C 87.521 396.859,86.216 396.039,85.572 395.580 C 84.927 395.121,84.400 394.852,84.400 394.981 M312.921 396.541 C 311.777 397.233,309.409 398.610,307.659 399.600 C 305.908 400.590,304.546 401.472,304.632 401.561 C 304.718 401.649,305.826 401.085,307.094 400.308 C 308.362 399.530,310.491 398.348,311.824 397.680 C 313.157 397.012,314.484 396.181,314.773 395.833 C 315.445 395.022,315.398 395.040,312.921 396.541 M90.400 398.521 C 90.400 398.822,94.063 401.097,95.300 401.565 C 96.980 402.199,96.610 401.739,94.700 400.817 C 93.765 400.366,92.415 399.621,91.700 399.162 C 90.985 398.702,90.400 398.414,90.400 398.521 M301.844 402.813 C 300.793 403.480,299.362 404.288,298.666 404.609 C 297.725 405.042,297.657 405.129,298.400 404.947 C 299.758 404.614,304.692 401.600,303.878 401.600 C 303.811 401.600,302.896 402.146,301.844 402.813 M97.600 402.783 C 98.661 403.632,102.005 405.329,102.209 405.123 C 102.276 405.055,101.041 404.321,99.465 403.492 C 97.889 402.662,97.050 402.343,97.600 402.783 M295.078 406.391 C 294.045 407.046,293.200 407.669,293.200 407.775 C 293.200 407.880,294.100 407.407,295.200 406.724 C 296.964 405.627,297.491 405.200,297.078 405.200 C 297.011 405.200,296.111 405.736,295.078 406.391 M103.600 405.724 C 103.600 405.817,104.365 406.398,105.300 407.015 C 106.235 407.632,106.789 407.880,106.531 407.568 C 106.034 406.967,103.600 405.436,103.600 405.724 M107.200 408.182 C 107.200 408.272,107.730 408.723,108.377 409.183 C 109.842 410.227,112.564 411.388,112.213 410.821 C 112.070 410.589,111.729 410.400,111.455 410.400 C 111.181 410.400,110.111 409.864,109.078 409.209 C 108.045 408.554,107.200 408.091,107.200 408.182 M290.300 409.429 C 288.805 410.240,288.896 410.578,290.400 409.800 C 291.060 409.459,291.600 409.094,291.600 408.990 C 291.600 408.732,291.557 408.747,290.300 409.429 M113.600 411.786 C 113.600 412.099,116.050 413.683,116.240 413.493 C 116.347 413.386,115.796 412.923,115.017 412.463 C 114.238 412.003,113.600 411.699,113.600 411.786 M283.800 413.021 C 282.480 413.774,281.580 414.391,281.800 414.391 C 282.281 414.393,286.400 412.065,286.400 411.792 C 286.400 411.529,286.489 411.487,283.800 413.021 M279.600 415.271 C 278.830 415.749,277.570 416.475,276.800 416.884 C 275.977 417.321,275.785 417.525,276.334 417.376 C 277.626 417.028,281.851 414.390,281.100 414.401 C 281.045 414.402,280.370 414.794,279.600 415.271 M119.800 415.072 C 120.302 415.560,123.995 418.163,124.800 418.595 C 125.804 419.134,124.763 418.254,122.600 416.733 C 120.384 415.175,119.160 414.449,119.800 415.072 M273.493 418.614 C 272.672 419.172,272.000 419.715,272.000 419.820 C 272.000 419.925,272.720 419.535,273.600 418.953 C 274.997 418.028,275.470 417.600,275.093 417.600 C 275.034 417.600,274.314 418.056,273.493 418.614 M125.600 418.984 C 125.600 419.094,126.320 419.551,127.200 420.000 C 128.080 420.449,128.800 420.726,128.800 420.616 C 128.800 420.506,128.080 420.049,127.200 419.600 C 126.320 419.151,125.600 418.874,125.600 418.984 M270.980 420.373 C 270.771 420.579,269.531 421.389,268.224 422.173 C 266.916 422.958,266.034 423.600,266.262 423.600 C 266.746 423.600,271.600 420.517,271.600 420.209 C 271.600 419.902,271.408 419.953,270.980 420.373 M130.153 421.738 C 131.253 422.670,136.000 424.951,136.000 424.548 C 136.000 424.442,135.145 423.978,134.100 423.517 C 133.055 423.056,131.480 422.247,130.600 421.720 L 129.000 420.761 130.153 421.738 M262.827 425.219 C 261.413 426.088,260.428 426.800,260.640 426.800 C 261.072 426.800,265.600 424.033,265.600 423.769 C 265.600 423.515,265.593 423.519,262.827 425.219 M136.400 424.955 C 136.400 425.231,139.221 426.912,139.394 426.739 C 139.478 426.655,138.838 426.180,137.973 425.682 C 137.108 425.184,136.400 424.857,136.400 424.955 M141.598 427.838 C 142.588 428.403,143.623 429.053,143.898 429.282 C 144.174 429.511,144.400 429.582,144.400 429.440 C 144.400 429.096,140.758 426.799,140.222 426.805 C 139.990 426.807,140.609 427.272,141.598 427.838 M255.400 429.234 C 254.300 429.865,253.542 430.386,253.716 430.391 C 254.231 430.406,257.125 428.846,257.396 428.406 C 257.712 427.896,257.782 427.867,255.400 429.234 M146.600 431.006 C 147.495 431.741,150.827 433.503,150.200 432.910 C 149.980 432.702,148.900 432.041,147.800 431.441 C 146.700 430.841,146.160 430.645,146.600 431.006 M248.179 433.581 C 247.970 433.790,246.809 434.507,245.599 435.173 C 244.390 435.840,243.580 436.387,243.800 436.389 C 244.350 436.394,248.283 434.113,248.595 433.608 C 248.912 433.095,248.681 433.079,248.179 433.581 M152.200 434.222 C 153.178 435.005,156.029 436.504,156.205 436.328 C 156.275 436.258,155.222 435.611,153.866 434.891 C 152.510 434.171,151.760 433.870,152.200 434.222 M240.781 437.790 C 239.582 438.554,238.732 439.184,238.894 439.190 C 239.254 439.202,243.200 436.797,243.200 436.566 C 243.200 436.275,243.005 436.373,240.781 437.790 M157.600 436.901 C 157.600 437.155,160.696 439.200,161.080 439.200 C 161.244 439.200,161.023 438.958,160.589 438.661 C 158.681 437.359,157.600 436.722,157.600 436.901 M235.729 440.395 C 234.590 441.049,233.517 441.812,233.346 442.092 C 233.174 442.371,233.476 442.285,234.017 441.901 C 234.558 441.516,235.810 440.760,236.800 440.219 C 237.790 439.679,238.420 439.231,238.200 439.222 C 237.980 439.214,236.868 439.742,235.729 440.395 M163.600 440.124 C 163.600 440.217,164.365 440.798,165.300 441.415 C 166.235 442.032,166.789 442.280,166.531 441.968 C 166.034 441.367,163.600 439.836,163.600 440.124 M229.096 444.550 C 227.175 445.731,226.638 446.289,228.200 445.481 C 229.454 444.833,231.145 443.626,230.800 443.625 C 230.690 443.625,229.923 444.041,229.096 444.550 M173.200 446.119 C 173.200 446.422,176.858 448.695,178.100 449.165 C 179.798 449.806,179.400 449.331,177.500 448.447 C 176.565 448.013,175.215 447.267,174.500 446.789 C 173.785 446.312,173.200 446.010,173.200 446.119 M222.800 448.400 C 222.030 448.822,221.544 449.174,221.720 449.183 C 222.144 449.205,224.400 448.032,224.400 447.790 C 224.400 447.528,224.377 447.537,222.800 448.400 M217.800 451.021 C 216.480 451.774,215.580 452.391,215.800 452.391 C 216.281 452.393,220.400 450.065,220.400 449.792 C 220.400 449.529,220.489 449.487,217.800 451.021 M181.600 450.996 C 181.600 451.270,184.049 452.484,184.232 452.301 C 184.319 452.214,183.762 451.844,182.995 451.478 C 182.228 451.112,181.600 450.895,181.600 450.996 M212.100 454.042 C 210.945 454.715,210.000 455.358,210.000 455.471 C 210.000 455.693,213.557 453.715,214.180 453.147 C 214.858 452.528,214.242 452.793,212.100 454.042 M187.000 453.807 C 187.440 454.166,188.160 454.635,188.600 454.851 L 189.400 455.244 188.600 454.593 C 188.160 454.234,187.440 453.765,187.000 453.549 L 186.200 453.156 187.000 453.807 M189.800 455.522 C 190.406 456.119,194.408 458.125,194.603 457.930 C 194.697 457.836,193.565 457.167,192.087 456.444 C 190.609 455.720,189.580 455.306,189.800 455.522 M207.904 456.230 C 207.777 456.356,206.622 456.892,205.337 457.420 C 204.052 457.949,203.270 458.385,203.600 458.389 C 204.308 458.399,209.201 456.076,208.567 456.031 C 208.328 456.014,208.030 456.103,207.904 456.230 M198.311 458.693 C 199.251 458.778,200.691 458.777,201.511 458.691 C 202.330 458.605,201.560 458.536,199.800 458.537 C 198.040 458.539,197.370 458.609,198.311 458.693 " stroke="none" fill="#fbfbfc" fill-rule="evenodd"></path></g></svg>